<mxfile host="app.diagrams.net" modified="2020-11-23T06:03:28.833Z" agent="5.0 (Windows NT 10.0; Win64; x64) AppleWebKit/537.36 (KHTML, like Gecko) Chrome/86.0.4240.198 Safari/537.36" etag="Ld5x6X59y1YGYVOM4g5l" version="13.10.1" type="github">
  <diagram name="Page-1" id="bfe91b75-5d2c-26a0-9c1d-138518896778">
    <mxGraphModel dx="4655" dy="1905" grid="1" gridSize="10" guides="1" tooltips="1" connect="1" arrows="1" fold="1" page="1" pageScale="1" pageWidth="1100" pageHeight="850" math="0" shadow="0">
      <root>
        <mxCell id="0" />
        <mxCell id="HQYTzcnKR_xj2mCuHYZr-74" value="Untitled Layer" parent="0" />
        <mxCell id="HQYTzcnKR_xj2mCuHYZr-75" value="Campus wing C" style="rounded=1;whiteSpace=wrap;html=1;shadow=0;comic=0;strokeWidth=2;fillColor=none;fontFamily=Verdana;fontSize=28;align=center;arcSize=11;verticalAlign=top;" vertex="1" parent="HQYTzcnKR_xj2mCuHYZr-74">
          <mxGeometry x="-1002" y="904" width="905" height="420" as="geometry" />
        </mxCell>
        <mxCell id="HQYTzcnKR_xj2mCuHYZr-76" style="edgeStyle=none;html=1;labelBackgroundColor=none;endArrow=none;endFill=0;strokeWidth=2;fontFamily=Verdana;fontSize=28;" edge="1" parent="HQYTzcnKR_xj2mCuHYZr-74" source="HQYTzcnKR_xj2mCuHYZr-77" target="HQYTzcnKR_xj2mCuHYZr-106">
          <mxGeometry relative="1" as="geometry">
            <mxPoint x="1660" y="837.0000000000002" as="targetPoint" />
          </mxGeometry>
        </mxCell>
        <mxCell id="HQYTzcnKR_xj2mCuHYZr-77" value="" style="verticalAlign=top;verticalLabelPosition=bottom;labelPosition=center;align=center;html=1;gradientDirection=north;strokeWidth=2;shape=mxgraph.networks.firewall;rounded=0;shadow=0;comic=0;" vertex="1" parent="HQYTzcnKR_xj2mCuHYZr-74">
          <mxGeometry x="1490" y="847" width="100" height="100" as="geometry" />
        </mxCell>
        <mxCell id="HQYTzcnKR_xj2mCuHYZr-78" style="edgeStyle=none;html=1;labelBackgroundColor=none;endArrow=none;endFill=0;strokeWidth=2;fontFamily=Verdana;fontSize=15;" edge="1" parent="HQYTzcnKR_xj2mCuHYZr-74" source="HQYTzcnKR_xj2mCuHYZr-79" target="HQYTzcnKR_xj2mCuHYZr-77">
          <mxGeometry relative="1" as="geometry">
            <mxPoint x="1549.9999999999995" y="917" as="targetPoint" />
          </mxGeometry>
        </mxCell>
        <mxCell id="HQYTzcnKR_xj2mCuHYZr-79" value="" style="verticalAlign=top;verticalLabelPosition=bottom;labelPosition=center;align=center;html=1;gradientDirection=north;strokeWidth=2;shape=mxgraph.networks.router;rounded=0;shadow=0;comic=0;" vertex="1" parent="HQYTzcnKR_xj2mCuHYZr-74">
          <mxGeometry x="1300" y="882" width="100" height="30" as="geometry" />
        </mxCell>
        <mxCell id="HQYTzcnKR_xj2mCuHYZr-80" value="" style="verticalAlign=top;verticalLabelPosition=bottom;labelPosition=center;align=center;html=1;gradientDirection=north;strokeWidth=2;shape=mxgraph.networks.pc;rounded=0;shadow=0;comic=0;" vertex="1" parent="HQYTzcnKR_xj2mCuHYZr-74">
          <mxGeometry x="130.00000000000028" y="765" width="100" height="70" as="geometry" />
        </mxCell>
        <mxCell id="HQYTzcnKR_xj2mCuHYZr-81" value="" style="verticalAlign=top;verticalLabelPosition=bottom;labelPosition=center;align=center;html=1;gradientDirection=north;strokeWidth=2;shape=mxgraph.networks.pc;rounded=0;shadow=0;comic=0;" vertex="1" parent="HQYTzcnKR_xj2mCuHYZr-74">
          <mxGeometry x="270.0000000000003" y="765" width="100" height="70" as="geometry" />
        </mxCell>
        <mxCell id="HQYTzcnKR_xj2mCuHYZr-82" value="" style="verticalAlign=top;verticalLabelPosition=bottom;labelPosition=center;align=center;html=1;gradientDirection=north;strokeWidth=2;shape=mxgraph.networks.pc;rounded=0;shadow=0;comic=0;" vertex="1" parent="HQYTzcnKR_xj2mCuHYZr-74">
          <mxGeometry x="390.0000000000003" y="765" width="100" height="70" as="geometry" />
        </mxCell>
        <mxCell id="HQYTzcnKR_xj2mCuHYZr-83" value="" style="verticalAlign=top;verticalLabelPosition=bottom;labelPosition=center;align=center;html=1;gradientDirection=north;strokeWidth=2;shape=mxgraph.networks.pc;rounded=0;shadow=0;comic=0;" vertex="1" parent="HQYTzcnKR_xj2mCuHYZr-74">
          <mxGeometry x="510.0000000000003" y="765" width="100" height="70" as="geometry" />
        </mxCell>
        <mxCell id="HQYTzcnKR_xj2mCuHYZr-84" value="" style="verticalAlign=top;verticalLabelPosition=bottom;labelPosition=center;align=center;html=1;gradientDirection=north;strokeWidth=2;shape=mxgraph.networks.pc;rounded=0;shadow=0;comic=0;" vertex="1" parent="HQYTzcnKR_xj2mCuHYZr-74">
          <mxGeometry x="640.0000000000002" y="765" width="100" height="70" as="geometry" />
        </mxCell>
        <mxCell id="HQYTzcnKR_xj2mCuHYZr-85" value="" style="verticalAlign=top;verticalLabelPosition=bottom;labelPosition=center;align=center;html=1;gradientDirection=north;strokeWidth=2;shape=mxgraph.networks.printer;rounded=0;shadow=0;comic=0;" vertex="1" parent="HQYTzcnKR_xj2mCuHYZr-74">
          <mxGeometry x="770.0000000000002" y="750" width="100" height="100" as="geometry" />
        </mxCell>
        <mxCell id="HQYTzcnKR_xj2mCuHYZr-86" style="edgeStyle=orthogonalEdgeStyle;html=1;labelBackgroundColor=none;endArrow=none;endFill=0;strokeWidth=2;fontFamily=Verdana;fontSize=15;" edge="1" parent="HQYTzcnKR_xj2mCuHYZr-74" source="HQYTzcnKR_xj2mCuHYZr-87" target="HQYTzcnKR_xj2mCuHYZr-79">
          <mxGeometry relative="1" as="geometry">
            <mxPoint x="1079.9999999999995" y="410" as="targetPoint" />
            <mxPoint x="1200" y="620" as="sourcePoint" />
            <Array as="points">
              <mxPoint x="1340" y="650" />
            </Array>
          </mxGeometry>
        </mxCell>
        <mxCell id="HQYTzcnKR_xj2mCuHYZr-87" value="" style="verticalAlign=top;verticalLabelPosition=bottom;labelPosition=center;align=center;html=1;gradientDirection=north;strokeWidth=2;shape=mxgraph.networks.wireless_hub;rounded=0;shadow=0;comic=0;" vertex="1" parent="HQYTzcnKR_xj2mCuHYZr-74">
          <mxGeometry x="670.0000000000002" y="575" width="100" height="85" as="geometry" />
        </mxCell>
        <mxCell id="HQYTzcnKR_xj2mCuHYZr-88" style="edgeStyle=none;html=1;labelBackgroundColor=none;endArrow=none;endFill=0;strokeWidth=2;fontFamily=Verdana;fontSize=15;" edge="1" parent="HQYTzcnKR_xj2mCuHYZr-74" source="HQYTzcnKR_xj2mCuHYZr-80" target="HQYTzcnKR_xj2mCuHYZr-87">
          <mxGeometry relative="1" as="geometry">
            <mxPoint x="650.0000000000002" y="695" as="targetPoint" />
          </mxGeometry>
        </mxCell>
        <mxCell id="HQYTzcnKR_xj2mCuHYZr-89" style="edgeStyle=none;html=1;labelBackgroundColor=none;endArrow=none;endFill=0;strokeWidth=2;fontFamily=Verdana;fontSize=15;" edge="1" parent="HQYTzcnKR_xj2mCuHYZr-74" source="HQYTzcnKR_xj2mCuHYZr-82" target="HQYTzcnKR_xj2mCuHYZr-87">
          <mxGeometry relative="1" as="geometry" />
        </mxCell>
        <mxCell id="HQYTzcnKR_xj2mCuHYZr-90" style="edgeStyle=none;html=1;labelBackgroundColor=none;endArrow=none;endFill=0;strokeWidth=2;fontFamily=Verdana;fontSize=15;" edge="1" parent="HQYTzcnKR_xj2mCuHYZr-74" source="HQYTzcnKR_xj2mCuHYZr-83" target="HQYTzcnKR_xj2mCuHYZr-87">
          <mxGeometry relative="1" as="geometry" />
        </mxCell>
        <mxCell id="HQYTzcnKR_xj2mCuHYZr-91" style="edgeStyle=none;html=1;labelBackgroundColor=none;endArrow=none;endFill=0;strokeWidth=2;fontFamily=Verdana;fontSize=15;" edge="1" parent="HQYTzcnKR_xj2mCuHYZr-74" source="HQYTzcnKR_xj2mCuHYZr-84" target="HQYTzcnKR_xj2mCuHYZr-87">
          <mxGeometry relative="1" as="geometry" />
        </mxCell>
        <mxCell id="HQYTzcnKR_xj2mCuHYZr-92" style="edgeStyle=none;html=1;labelBackgroundColor=none;endArrow=none;endFill=0;strokeWidth=2;fontFamily=Verdana;fontSize=15;" edge="1" parent="HQYTzcnKR_xj2mCuHYZr-74" source="HQYTzcnKR_xj2mCuHYZr-85" target="HQYTzcnKR_xj2mCuHYZr-87">
          <mxGeometry relative="1" as="geometry" />
        </mxCell>
        <mxCell id="HQYTzcnKR_xj2mCuHYZr-93" value="" style="verticalAlign=top;verticalLabelPosition=bottom;labelPosition=center;align=center;html=1;gradientDirection=north;strokeWidth=2;shape=mxgraph.networks.pc;rounded=0;shadow=0;comic=0;" vertex="1" parent="HQYTzcnKR_xj2mCuHYZr-74">
          <mxGeometry x="-919.9999999999998" y="1000.0017647058824" width="100" height="70" as="geometry" />
        </mxCell>
        <mxCell id="HQYTzcnKR_xj2mCuHYZr-94" value="" style="verticalAlign=top;verticalLabelPosition=bottom;labelPosition=center;align=center;html=1;gradientDirection=north;strokeWidth=2;shape=mxgraph.networks.pc;rounded=0;shadow=0;comic=0;" vertex="1" parent="HQYTzcnKR_xj2mCuHYZr-74">
          <mxGeometry x="-899.9999999999998" y="1140.0017647058824" width="100" height="70" as="geometry" />
        </mxCell>
        <mxCell id="HQYTzcnKR_xj2mCuHYZr-95" value="" style="verticalAlign=top;verticalLabelPosition=bottom;labelPosition=center;align=center;html=1;gradientDirection=north;strokeWidth=2;shape=mxgraph.networks.pc;rounded=0;shadow=0;comic=0;" vertex="1" parent="HQYTzcnKR_xj2mCuHYZr-74">
          <mxGeometry x="-769.9999999999998" y="1199.4117647058824" width="100" height="70" as="geometry" />
        </mxCell>
        <mxCell id="HQYTzcnKR_xj2mCuHYZr-96" value="" style="verticalAlign=top;verticalLabelPosition=bottom;labelPosition=center;align=center;html=1;gradientDirection=north;strokeWidth=2;shape=mxgraph.networks.pc;rounded=0;shadow=0;comic=0;" vertex="1" parent="HQYTzcnKR_xj2mCuHYZr-74">
          <mxGeometry x="-449.9999999999998" y="1250.0017647058824" width="100" height="70" as="geometry" />
        </mxCell>
        <mxCell id="HQYTzcnKR_xj2mCuHYZr-97" value="" style="verticalAlign=top;verticalLabelPosition=bottom;labelPosition=center;align=center;html=1;gradientDirection=north;strokeWidth=2;shape=mxgraph.networks.pc;rounded=0;shadow=0;comic=0;" vertex="1" parent="HQYTzcnKR_xj2mCuHYZr-74">
          <mxGeometry x="640.0000000000002" y="1199.4117647058824" width="100" height="70" as="geometry" />
        </mxCell>
        <mxCell id="HQYTzcnKR_xj2mCuHYZr-98" style="edgeStyle=orthogonalEdgeStyle;html=1;labelBackgroundColor=none;endArrow=none;endFill=0;strokeWidth=2;fontFamily=Verdana;fontSize=15;" edge="1" parent="HQYTzcnKR_xj2mCuHYZr-74" source="HQYTzcnKR_xj2mCuHYZr-99" target="HQYTzcnKR_xj2mCuHYZr-79">
          <mxGeometry relative="1" as="geometry">
            <mxPoint x="1180" y="430" as="targetPoint" />
            <Array as="points">
              <mxPoint x="1340" y="1080" />
            </Array>
          </mxGeometry>
        </mxCell>
        <mxCell id="HQYTzcnKR_xj2mCuHYZr-99" value="" style="verticalAlign=top;verticalLabelPosition=bottom;labelPosition=center;align=center;html=1;gradientDirection=north;strokeWidth=2;shape=mxgraph.networks.wireless_hub;rounded=0;shadow=0;comic=0;" vertex="1" parent="HQYTzcnKR_xj2mCuHYZr-74">
          <mxGeometry x="670.0000000000002" y="1009.4117647058824" width="100" height="85" as="geometry" />
        </mxCell>
        <mxCell id="HQYTzcnKR_xj2mCuHYZr-100" style="edgeStyle=none;html=1;labelBackgroundColor=none;endArrow=none;endFill=0;strokeWidth=2;fontFamily=Verdana;fontSize=15;entryX=0;entryY=0.5;entryDx=0;entryDy=0;" edge="1" parent="HQYTzcnKR_xj2mCuHYZr-74" source="HQYTzcnKR_xj2mCuHYZr-93">
          <mxGeometry relative="1" as="geometry">
            <mxPoint x="78" y="1100" as="targetPoint" />
          </mxGeometry>
        </mxCell>
        <mxCell id="HQYTzcnKR_xj2mCuHYZr-101" style="edgeStyle=none;html=1;labelBackgroundColor=none;endArrow=none;endFill=0;strokeWidth=2;fontFamily=Verdana;fontSize=15;entryX=0;entryY=0.5;entryDx=0;entryDy=0;" edge="1" parent="HQYTzcnKR_xj2mCuHYZr-74" source="HQYTzcnKR_xj2mCuHYZr-95">
          <mxGeometry relative="1" as="geometry">
            <mxPoint x="78" y="1100" as="targetPoint" />
          </mxGeometry>
        </mxCell>
        <mxCell id="HQYTzcnKR_xj2mCuHYZr-102" style="edgeStyle=none;html=1;labelBackgroundColor=none;endArrow=none;endFill=0;strokeWidth=2;fontFamily=Verdana;fontSize=15;entryX=0;entryY=0.5;entryDx=0;entryDy=0;" edge="1" parent="HQYTzcnKR_xj2mCuHYZr-74" source="HQYTzcnKR_xj2mCuHYZr-96">
          <mxGeometry relative="1" as="geometry">
            <mxPoint x="78" y="1100" as="targetPoint" />
          </mxGeometry>
        </mxCell>
        <mxCell id="HQYTzcnKR_xj2mCuHYZr-103" style="edgeStyle=none;html=1;labelBackgroundColor=none;endArrow=none;endFill=0;strokeWidth=2;fontFamily=Verdana;fontSize=15;" edge="1" parent="HQYTzcnKR_xj2mCuHYZr-74" source="HQYTzcnKR_xj2mCuHYZr-97" target="HQYTzcnKR_xj2mCuHYZr-99">
          <mxGeometry relative="1" as="geometry" />
        </mxCell>
        <mxCell id="HQYTzcnKR_xj2mCuHYZr-104" value="Internet" style="html=1;gradientDirection=north;strokeWidth=2;shape=mxgraph.networks.cloud;rounded=0;shadow=0;comic=0;align=center;fontSize=28;" vertex="1" parent="HQYTzcnKR_xj2mCuHYZr-74">
          <mxGeometry x="1760" y="689" width="330" height="140" as="geometry" />
        </mxCell>
        <mxCell id="HQYTzcnKR_xj2mCuHYZr-105" style="edgeStyle=none;html=1;labelBackgroundColor=none;endArrow=none;endFill=0;strokeWidth=2;fontFamily=Verdana;fontSize=28;" edge="1" parent="HQYTzcnKR_xj2mCuHYZr-74" source="HQYTzcnKR_xj2mCuHYZr-106" target="HQYTzcnKR_xj2mCuHYZr-104">
          <mxGeometry relative="1" as="geometry" />
        </mxCell>
        <mxCell id="HQYTzcnKR_xj2mCuHYZr-106" value="" style="verticalAlign=top;verticalLabelPosition=bottom;labelPosition=center;align=center;html=1;gradientDirection=north;strokeWidth=2;shape=mxgraph.networks.router;rounded=0;shadow=0;comic=0;" vertex="1" parent="HQYTzcnKR_xj2mCuHYZr-74">
          <mxGeometry x="1640" y="882" width="100" height="30" as="geometry" />
        </mxCell>
        <mxCell id="HQYTzcnKR_xj2mCuHYZr-107" style="edgeStyle=none;html=1;labelBackgroundColor=none;endArrow=none;endFill=0;strokeWidth=2;fontFamily=Verdana;fontSize=28;" edge="1" parent="HQYTzcnKR_xj2mCuHYZr-74" source="HQYTzcnKR_xj2mCuHYZr-108" target="HQYTzcnKR_xj2mCuHYZr-106">
          <mxGeometry relative="1" as="geometry" />
        </mxCell>
        <mxCell id="HQYTzcnKR_xj2mCuHYZr-108" value="" style="verticalAlign=top;verticalLabelPosition=bottom;labelPosition=center;align=center;html=1;gradientDirection=north;strokeWidth=2;shape=mxgraph.networks.storage;rounded=0;shadow=0;comic=0;" vertex="1" parent="HQYTzcnKR_xj2mCuHYZr-74">
          <mxGeometry x="1510" y="1079" width="100" height="100" as="geometry" />
        </mxCell>
        <mxCell id="HQYTzcnKR_xj2mCuHYZr-109" style="edgeStyle=none;html=1;labelBackgroundColor=none;endArrow=none;endFill=0;strokeWidth=2;fontFamily=Verdana;fontSize=28;" edge="1" parent="HQYTzcnKR_xj2mCuHYZr-74" source="HQYTzcnKR_xj2mCuHYZr-110" target="HQYTzcnKR_xj2mCuHYZr-106">
          <mxGeometry relative="1" as="geometry">
            <mxPoint x="1570" y="827" as="targetPoint" />
          </mxGeometry>
        </mxCell>
        <mxCell id="HQYTzcnKR_xj2mCuHYZr-110" value="" style="verticalAlign=top;verticalLabelPosition=bottom;labelPosition=center;align=center;html=1;gradientDirection=north;strokeWidth=2;shape=mxgraph.networks.server_storage;rounded=0;shadow=0;comic=0;" vertex="1" parent="HQYTzcnKR_xj2mCuHYZr-74">
          <mxGeometry x="1540" y="605" width="105" height="105" as="geometry" />
        </mxCell>
        <mxCell id="HQYTzcnKR_xj2mCuHYZr-111" value="" style="verticalAlign=top;verticalLabelPosition=bottom;labelPosition=center;align=center;html=1;gradientDirection=north;strokeWidth=2;shape=mxgraph.networks.pc;rounded=0;shadow=0;comic=0;" vertex="1" parent="HQYTzcnKR_xj2mCuHYZr-74">
          <mxGeometry x="130.00000000000026" y="1670.4117647058824" width="100" height="70" as="geometry" />
        </mxCell>
        <mxCell id="HQYTzcnKR_xj2mCuHYZr-112" value="" style="verticalAlign=top;verticalLabelPosition=bottom;labelPosition=center;align=center;html=1;gradientDirection=north;strokeWidth=2;shape=mxgraph.networks.pc;rounded=0;shadow=0;comic=0;" vertex="1" parent="HQYTzcnKR_xj2mCuHYZr-74">
          <mxGeometry x="270.0000000000002" y="1670.4117647058824" width="100" height="70" as="geometry" />
        </mxCell>
        <mxCell id="HQYTzcnKR_xj2mCuHYZr-113" value="" style="verticalAlign=top;verticalLabelPosition=bottom;labelPosition=center;align=center;html=1;gradientDirection=north;strokeWidth=2;shape=mxgraph.networks.pc;rounded=0;shadow=0;comic=0;" vertex="1" parent="HQYTzcnKR_xj2mCuHYZr-74">
          <mxGeometry x="390.0000000000002" y="1670.4117647058824" width="100" height="70" as="geometry" />
        </mxCell>
        <mxCell id="HQYTzcnKR_xj2mCuHYZr-114" value="" style="verticalAlign=top;verticalLabelPosition=bottom;labelPosition=center;align=center;html=1;gradientDirection=north;strokeWidth=2;shape=mxgraph.networks.pc;rounded=0;shadow=0;comic=0;" vertex="1" parent="HQYTzcnKR_xj2mCuHYZr-74">
          <mxGeometry x="510.0000000000002" y="1670.4117647058824" width="100" height="70" as="geometry" />
        </mxCell>
        <mxCell id="HQYTzcnKR_xj2mCuHYZr-115" value="" style="verticalAlign=top;verticalLabelPosition=bottom;labelPosition=center;align=center;html=1;gradientDirection=north;strokeWidth=2;shape=mxgraph.networks.pc;rounded=0;shadow=0;comic=0;" vertex="1" parent="HQYTzcnKR_xj2mCuHYZr-74">
          <mxGeometry x="640.0000000000002" y="1670.4117647058824" width="100" height="70" as="geometry" />
        </mxCell>
        <mxCell id="HQYTzcnKR_xj2mCuHYZr-116" value="" style="verticalAlign=top;verticalLabelPosition=bottom;labelPosition=center;align=center;html=1;gradientDirection=north;strokeWidth=2;shape=mxgraph.networks.printer;rounded=0;shadow=0;comic=0;" vertex="1" parent="HQYTzcnKR_xj2mCuHYZr-74">
          <mxGeometry x="770.0000000000002" y="1655.4117647058824" width="100" height="100" as="geometry" />
        </mxCell>
        <mxCell id="HQYTzcnKR_xj2mCuHYZr-117" style="edgeStyle=orthogonalEdgeStyle;html=1;labelBackgroundColor=none;endArrow=none;endFill=0;strokeWidth=2;fontFamily=Verdana;fontSize=28;" edge="1" parent="HQYTzcnKR_xj2mCuHYZr-74" source="HQYTzcnKR_xj2mCuHYZr-118" target="HQYTzcnKR_xj2mCuHYZr-79">
          <mxGeometry relative="1" as="geometry">
            <mxPoint x="1240" y="760" as="targetPoint" />
            <Array as="points">
              <mxPoint x="1370" y="1552" />
            </Array>
          </mxGeometry>
        </mxCell>
        <mxCell id="HQYTzcnKR_xj2mCuHYZr-118" value="" style="verticalAlign=top;verticalLabelPosition=bottom;labelPosition=center;align=center;html=1;gradientDirection=north;strokeWidth=2;shape=mxgraph.networks.wireless_hub;rounded=0;shadow=0;comic=0;" vertex="1" parent="HQYTzcnKR_xj2mCuHYZr-74">
          <mxGeometry x="670.0000000000002" y="1480.4117647058824" width="100" height="85" as="geometry" />
        </mxCell>
        <mxCell id="HQYTzcnKR_xj2mCuHYZr-119" style="edgeStyle=none;html=1;labelBackgroundColor=none;endArrow=none;endFill=0;strokeWidth=2;fontFamily=Verdana;fontSize=15;" edge="1" parent="HQYTzcnKR_xj2mCuHYZr-74" source="HQYTzcnKR_xj2mCuHYZr-111" target="HQYTzcnKR_xj2mCuHYZr-118">
          <mxGeometry relative="1" as="geometry">
            <mxPoint x="650.0000000000002" y="1600.4117647058824" as="targetPoint" />
          </mxGeometry>
        </mxCell>
        <mxCell id="HQYTzcnKR_xj2mCuHYZr-120" style="edgeStyle=none;html=1;labelBackgroundColor=none;endArrow=none;endFill=0;strokeWidth=2;fontFamily=Verdana;fontSize=15;" edge="1" parent="HQYTzcnKR_xj2mCuHYZr-74" source="HQYTzcnKR_xj2mCuHYZr-113" target="HQYTzcnKR_xj2mCuHYZr-118">
          <mxGeometry relative="1" as="geometry" />
        </mxCell>
        <mxCell id="HQYTzcnKR_xj2mCuHYZr-121" style="edgeStyle=none;html=1;labelBackgroundColor=none;endArrow=none;endFill=0;strokeWidth=2;fontFamily=Verdana;fontSize=15;" edge="1" parent="HQYTzcnKR_xj2mCuHYZr-74" source="HQYTzcnKR_xj2mCuHYZr-114" target="HQYTzcnKR_xj2mCuHYZr-118">
          <mxGeometry relative="1" as="geometry" />
        </mxCell>
        <mxCell id="HQYTzcnKR_xj2mCuHYZr-122" style="edgeStyle=none;html=1;labelBackgroundColor=none;endArrow=none;endFill=0;strokeWidth=2;fontFamily=Verdana;fontSize=15;" edge="1" parent="HQYTzcnKR_xj2mCuHYZr-74" source="HQYTzcnKR_xj2mCuHYZr-115" target="HQYTzcnKR_xj2mCuHYZr-118">
          <mxGeometry relative="1" as="geometry" />
        </mxCell>
        <mxCell id="HQYTzcnKR_xj2mCuHYZr-123" style="edgeStyle=none;html=1;labelBackgroundColor=none;endArrow=none;endFill=0;strokeWidth=2;fontFamily=Verdana;fontSize=15;" edge="1" parent="HQYTzcnKR_xj2mCuHYZr-74" source="HQYTzcnKR_xj2mCuHYZr-116" target="HQYTzcnKR_xj2mCuHYZr-118">
          <mxGeometry relative="1" as="geometry" />
        </mxCell>
        <mxCell id="HQYTzcnKR_xj2mCuHYZr-124" value="" style="rounded=0;whiteSpace=wrap;html=1;" vertex="1" parent="HQYTzcnKR_xj2mCuHYZr-74">
          <mxGeometry x="160" y="1290" width="730" height="80" as="geometry" />
        </mxCell>
        <mxCell id="HQYTzcnKR_xj2mCuHYZr-125" value="" style="rounded=1;whiteSpace=wrap;html=1;" vertex="1" parent="HQYTzcnKR_xj2mCuHYZr-74">
          <mxGeometry x="80" y="110" width="1370" height="2130" as="geometry" />
        </mxCell>
        <mxCell id="HQYTzcnKR_xj2mCuHYZr-126" value="" style="verticalAlign=top;verticalLabelPosition=bottom;labelPosition=center;align=center;html=1;gradientDirection=north;strokeWidth=2;shape=mxgraph.networks.wireless_hub;rounded=0;shadow=0;comic=0;" vertex="1" parent="HQYTzcnKR_xj2mCuHYZr-74">
          <mxGeometry x="230" y="550" width="210" height="475.59" as="geometry" />
        </mxCell>
        <mxCell id="HQYTzcnKR_xj2mCuHYZr-127" value="" style="verticalAlign=top;verticalLabelPosition=bottom;labelPosition=center;align=center;html=1;gradientDirection=north;strokeWidth=2;shape=mxgraph.networks.wireless_hub;rounded=0;shadow=0;comic=0;" vertex="1" parent="HQYTzcnKR_xj2mCuHYZr-74">
          <mxGeometry x="500" y="550" width="210" height="475.59" as="geometry" />
        </mxCell>
        <mxCell id="HQYTzcnKR_xj2mCuHYZr-128" value="" style="verticalAlign=top;verticalLabelPosition=bottom;labelPosition=center;align=center;html=1;gradientDirection=north;strokeWidth=2;shape=mxgraph.networks.wireless_hub;rounded=0;shadow=0;comic=0;" vertex="1" parent="HQYTzcnKR_xj2mCuHYZr-74">
          <mxGeometry x="760" y="550" width="210" height="475.59" as="geometry" />
        </mxCell>
        <mxCell id="HQYTzcnKR_xj2mCuHYZr-129" value="VPC" style="text;html=1;resizable=0;autosize=1;align=center;verticalAlign=middle;points=[];fillColor=none;strokeColor=none;rounded=0;sketch=0;fontSize=50;" vertex="1" parent="HQYTzcnKR_xj2mCuHYZr-74">
          <mxGeometry x="710" y="2090" width="120" height="70" as="geometry" />
        </mxCell>
        <mxCell id="HQYTzcnKR_xj2mCuHYZr-130" value="Text" style="text;html=1;resizable=0;autosize=1;align=center;verticalAlign=middle;points=[];fillColor=none;strokeColor=none;rounded=0;sketch=0;fontSize=50;" vertex="1" parent="HQYTzcnKR_xj2mCuHYZr-74">
          <mxGeometry x="740" y="1740.41" width="40" height="20" as="geometry" />
        </mxCell>
        <mxCell id="HQYTzcnKR_xj2mCuHYZr-131" value="Text" style="text;html=1;resizable=0;autosize=1;align=center;verticalAlign=middle;points=[];fillColor=none;strokeColor=none;rounded=0;sketch=0;fontSize=50;" vertex="1" parent="HQYTzcnKR_xj2mCuHYZr-74">
          <mxGeometry x="610" y="1390" width="40" height="20" as="geometry" />
        </mxCell>
        <mxCell id="1" parent="0" visible="0" />
        <mxCell id="7c3789c024ecab99-81" value="Campus wing C" style="rounded=1;whiteSpace=wrap;html=1;shadow=0;comic=0;strokeWidth=2;fillColor=none;fontFamily=Verdana;fontSize=28;align=center;arcSize=11;verticalAlign=top;" parent="1" vertex="1">
          <mxGeometry x="-1002" y="904" width="905" height="420" as="geometry" />
        </mxCell>
        <mxCell id="7c3789c024ecab99-55" style="edgeStyle=none;html=1;labelBackgroundColor=none;endArrow=none;endFill=0;strokeWidth=2;fontFamily=Verdana;fontSize=28;" parent="1" source="7c3789c024ecab99-8" target="7c3789c024ecab99-54" edge="1">
          <mxGeometry relative="1" as="geometry">
            <mxPoint x="1660" y="837.0000000000002" as="targetPoint" />
          </mxGeometry>
        </mxCell>
        <mxCell id="7c3789c024ecab99-8" value="" style="verticalAlign=top;verticalLabelPosition=bottom;labelPosition=center;align=center;html=1;gradientDirection=north;strokeWidth=2;shape=mxgraph.networks.firewall;rounded=0;shadow=0;comic=0;" parent="1" vertex="1">
          <mxGeometry x="1490" y="847" width="100" height="100" as="geometry" />
        </mxCell>
        <mxCell id="7c3789c024ecab99-52" style="edgeStyle=none;html=1;labelBackgroundColor=none;endArrow=none;endFill=0;strokeWidth=2;fontFamily=Verdana;fontSize=15;" parent="1" source="7c3789c024ecab99-10" target="7c3789c024ecab99-8" edge="1">
          <mxGeometry relative="1" as="geometry">
            <mxPoint x="1549.9999999999995" y="917" as="targetPoint" />
          </mxGeometry>
        </mxCell>
        <mxCell id="7c3789c024ecab99-10" value="" style="verticalAlign=top;verticalLabelPosition=bottom;labelPosition=center;align=center;html=1;gradientDirection=north;strokeWidth=2;shape=mxgraph.networks.router;rounded=0;shadow=0;comic=0;" parent="1" vertex="1">
          <mxGeometry x="1300" y="882" width="100" height="30" as="geometry" />
        </mxCell>
        <mxCell id="7c3789c024ecab99-20" value="" style="verticalAlign=top;verticalLabelPosition=bottom;labelPosition=center;align=center;html=1;gradientDirection=north;strokeWidth=2;shape=mxgraph.networks.pc;rounded=0;shadow=0;comic=0;" parent="1" vertex="1">
          <mxGeometry x="130.00000000000028" y="765" width="100" height="70" as="geometry" />
        </mxCell>
        <mxCell id="7c3789c024ecab99-21" value="" style="verticalAlign=top;verticalLabelPosition=bottom;labelPosition=center;align=center;html=1;gradientDirection=north;strokeWidth=2;shape=mxgraph.networks.pc;rounded=0;shadow=0;comic=0;" parent="1" vertex="1">
          <mxGeometry x="270.0000000000003" y="765" width="100" height="70" as="geometry" />
        </mxCell>
        <mxCell id="7c3789c024ecab99-23" value="" style="verticalAlign=top;verticalLabelPosition=bottom;labelPosition=center;align=center;html=1;gradientDirection=north;strokeWidth=2;shape=mxgraph.networks.pc;rounded=0;shadow=0;comic=0;" parent="1" vertex="1">
          <mxGeometry x="390.0000000000003" y="765" width="100" height="70" as="geometry" />
        </mxCell>
        <mxCell id="7c3789c024ecab99-25" value="" style="verticalAlign=top;verticalLabelPosition=bottom;labelPosition=center;align=center;html=1;gradientDirection=north;strokeWidth=2;shape=mxgraph.networks.pc;rounded=0;shadow=0;comic=0;" parent="1" vertex="1">
          <mxGeometry x="510.0000000000003" y="765" width="100" height="70" as="geometry" />
        </mxCell>
        <mxCell id="7c3789c024ecab99-27" value="" style="verticalAlign=top;verticalLabelPosition=bottom;labelPosition=center;align=center;html=1;gradientDirection=north;strokeWidth=2;shape=mxgraph.networks.pc;rounded=0;shadow=0;comic=0;" parent="1" vertex="1">
          <mxGeometry x="640.0000000000002" y="765" width="100" height="70" as="geometry" />
        </mxCell>
        <mxCell id="7c3789c024ecab99-29" value="" style="verticalAlign=top;verticalLabelPosition=bottom;labelPosition=center;align=center;html=1;gradientDirection=north;strokeWidth=2;shape=mxgraph.networks.printer;rounded=0;shadow=0;comic=0;" parent="1" vertex="1">
          <mxGeometry x="770.0000000000002" y="750" width="100" height="100" as="geometry" />
        </mxCell>
        <mxCell id="7c3789c024ecab99-50" style="edgeStyle=orthogonalEdgeStyle;html=1;labelBackgroundColor=none;endArrow=none;endFill=0;strokeWidth=2;fontFamily=Verdana;fontSize=15;" parent="1" source="7c3789c024ecab99-30" target="7c3789c024ecab99-10" edge="1">
          <mxGeometry relative="1" as="geometry">
            <mxPoint x="1079.9999999999995" y="410" as="targetPoint" />
            <mxPoint x="1200" y="620" as="sourcePoint" />
            <Array as="points">
              <mxPoint x="1340" y="650" />
            </Array>
          </mxGeometry>
        </mxCell>
        <mxCell id="7c3789c024ecab99-30" value="" style="verticalAlign=top;verticalLabelPosition=bottom;labelPosition=center;align=center;html=1;gradientDirection=north;strokeWidth=2;shape=mxgraph.networks.wireless_hub;rounded=0;shadow=0;comic=0;" parent="1" vertex="1">
          <mxGeometry x="670.0000000000002" y="575" width="100" height="85" as="geometry" />
        </mxCell>
        <mxCell id="7c3789c024ecab99-19" style="edgeStyle=none;html=1;labelBackgroundColor=none;endArrow=none;endFill=0;strokeWidth=2;fontFamily=Verdana;fontSize=15;" parent="1" source="7c3789c024ecab99-20" target="7c3789c024ecab99-30" edge="1">
          <mxGeometry relative="1" as="geometry">
            <mxPoint x="650.0000000000002" y="695" as="targetPoint" />
          </mxGeometry>
        </mxCell>
        <mxCell id="7c3789c024ecab99-22" style="edgeStyle=none;html=1;labelBackgroundColor=none;endArrow=none;endFill=0;strokeWidth=2;fontFamily=Verdana;fontSize=15;" parent="1" source="7c3789c024ecab99-23" target="7c3789c024ecab99-30" edge="1">
          <mxGeometry relative="1" as="geometry" />
        </mxCell>
        <mxCell id="7c3789c024ecab99-24" style="edgeStyle=none;html=1;labelBackgroundColor=none;endArrow=none;endFill=0;strokeWidth=2;fontFamily=Verdana;fontSize=15;" parent="1" source="7c3789c024ecab99-25" target="7c3789c024ecab99-30" edge="1">
          <mxGeometry relative="1" as="geometry" />
        </mxCell>
        <mxCell id="7c3789c024ecab99-26" style="edgeStyle=none;html=1;labelBackgroundColor=none;endArrow=none;endFill=0;strokeWidth=2;fontFamily=Verdana;fontSize=15;" parent="1" source="7c3789c024ecab99-27" target="7c3789c024ecab99-30" edge="1">
          <mxGeometry relative="1" as="geometry" />
        </mxCell>
        <mxCell id="7c3789c024ecab99-28" style="edgeStyle=none;html=1;labelBackgroundColor=none;endArrow=none;endFill=0;strokeWidth=2;fontFamily=Verdana;fontSize=15;" parent="1" source="7c3789c024ecab99-29" target="7c3789c024ecab99-30" edge="1">
          <mxGeometry relative="1" as="geometry" />
        </mxCell>
        <mxCell id="7c3789c024ecab99-34" value="" style="verticalAlign=top;verticalLabelPosition=bottom;labelPosition=center;align=center;html=1;gradientDirection=north;strokeWidth=2;shape=mxgraph.networks.pc;rounded=0;shadow=0;comic=0;" parent="1" vertex="1">
          <mxGeometry x="-919.9999999999998" y="1000.0017647058824" width="100" height="70" as="geometry" />
        </mxCell>
        <mxCell id="7c3789c024ecab99-35" value="" style="verticalAlign=top;verticalLabelPosition=bottom;labelPosition=center;align=center;html=1;gradientDirection=north;strokeWidth=2;shape=mxgraph.networks.pc;rounded=0;shadow=0;comic=0;" parent="1" vertex="1">
          <mxGeometry x="-899.9999999999998" y="1140.0017647058824" width="100" height="70" as="geometry" />
        </mxCell>
        <mxCell id="7c3789c024ecab99-37" value="" style="verticalAlign=top;verticalLabelPosition=bottom;labelPosition=center;align=center;html=1;gradientDirection=north;strokeWidth=2;shape=mxgraph.networks.pc;rounded=0;shadow=0;comic=0;" parent="1" vertex="1">
          <mxGeometry x="-769.9999999999998" y="1199.4117647058824" width="100" height="70" as="geometry" />
        </mxCell>
        <mxCell id="7c3789c024ecab99-39" value="" style="verticalAlign=top;verticalLabelPosition=bottom;labelPosition=center;align=center;html=1;gradientDirection=north;strokeWidth=2;shape=mxgraph.networks.pc;rounded=0;shadow=0;comic=0;" parent="1" vertex="1">
          <mxGeometry x="-449.9999999999998" y="1250.0017647058824" width="100" height="70" as="geometry" />
        </mxCell>
        <mxCell id="7c3789c024ecab99-41" value="" style="verticalAlign=top;verticalLabelPosition=bottom;labelPosition=center;align=center;html=1;gradientDirection=north;strokeWidth=2;shape=mxgraph.networks.pc;rounded=0;shadow=0;comic=0;" parent="1" vertex="1">
          <mxGeometry x="640.0000000000002" y="1199.4117647058824" width="100" height="70" as="geometry" />
        </mxCell>
        <mxCell id="7c3789c024ecab99-51" style="edgeStyle=orthogonalEdgeStyle;html=1;labelBackgroundColor=none;endArrow=none;endFill=0;strokeWidth=2;fontFamily=Verdana;fontSize=15;" parent="1" source="7c3789c024ecab99-44" target="7c3789c024ecab99-10" edge="1">
          <mxGeometry relative="1" as="geometry">
            <mxPoint x="1180" y="430" as="targetPoint" />
            <Array as="points">
              <mxPoint x="1340" y="1080" />
            </Array>
          </mxGeometry>
        </mxCell>
        <mxCell id="7c3789c024ecab99-44" value="" style="verticalAlign=top;verticalLabelPosition=bottom;labelPosition=center;align=center;html=1;gradientDirection=north;strokeWidth=2;shape=mxgraph.networks.wireless_hub;rounded=0;shadow=0;comic=0;" parent="1" vertex="1">
          <mxGeometry x="670.0000000000002" y="1009.4117647058824" width="100" height="85" as="geometry" />
        </mxCell>
        <mxCell id="7c3789c024ecab99-33" style="edgeStyle=none;html=1;labelBackgroundColor=none;endArrow=none;endFill=0;strokeWidth=2;fontFamily=Verdana;fontSize=15;entryX=0;entryY=0.5;entryDx=0;entryDy=0;" parent="1" source="7c3789c024ecab99-34" edge="1">
          <mxGeometry relative="1" as="geometry">
            <mxPoint x="78" y="1100" as="targetPoint" />
          </mxGeometry>
        </mxCell>
        <mxCell id="7c3789c024ecab99-36" style="edgeStyle=none;html=1;labelBackgroundColor=none;endArrow=none;endFill=0;strokeWidth=2;fontFamily=Verdana;fontSize=15;entryX=0;entryY=0.5;entryDx=0;entryDy=0;" parent="1" source="7c3789c024ecab99-37" edge="1">
          <mxGeometry relative="1" as="geometry">
            <mxPoint x="78" y="1100" as="targetPoint" />
          </mxGeometry>
        </mxCell>
        <mxCell id="7c3789c024ecab99-38" style="edgeStyle=none;html=1;labelBackgroundColor=none;endArrow=none;endFill=0;strokeWidth=2;fontFamily=Verdana;fontSize=15;entryX=0;entryY=0.5;entryDx=0;entryDy=0;" parent="1" source="7c3789c024ecab99-39" edge="1">
          <mxGeometry relative="1" as="geometry">
            <mxPoint x="78" y="1100" as="targetPoint" />
          </mxGeometry>
        </mxCell>
        <mxCell id="7c3789c024ecab99-40" style="edgeStyle=none;html=1;labelBackgroundColor=none;endArrow=none;endFill=0;strokeWidth=2;fontFamily=Verdana;fontSize=15;" parent="1" source="7c3789c024ecab99-41" target="7c3789c024ecab99-44" edge="1">
          <mxGeometry relative="1" as="geometry" />
        </mxCell>
        <mxCell id="7c3789c024ecab99-53" value="Internet" style="html=1;gradientDirection=north;strokeWidth=2;shape=mxgraph.networks.cloud;rounded=0;shadow=0;comic=0;align=center;fontSize=28;" parent="1" vertex="1">
          <mxGeometry x="1760" y="689" width="330" height="140" as="geometry" />
        </mxCell>
        <mxCell id="7c3789c024ecab99-56" style="edgeStyle=none;html=1;labelBackgroundColor=none;endArrow=none;endFill=0;strokeWidth=2;fontFamily=Verdana;fontSize=28;" parent="1" source="7c3789c024ecab99-54" target="7c3789c024ecab99-53" edge="1">
          <mxGeometry relative="1" as="geometry" />
        </mxCell>
        <mxCell id="7c3789c024ecab99-54" value="" style="verticalAlign=top;verticalLabelPosition=bottom;labelPosition=center;align=center;html=1;gradientDirection=north;strokeWidth=2;shape=mxgraph.networks.router;rounded=0;shadow=0;comic=0;" parent="1" vertex="1">
          <mxGeometry x="1640" y="882" width="100" height="30" as="geometry" />
        </mxCell>
        <mxCell id="7c3789c024ecab99-60" style="edgeStyle=none;html=1;labelBackgroundColor=none;endArrow=none;endFill=0;strokeWidth=2;fontFamily=Verdana;fontSize=28;" parent="1" source="7c3789c024ecab99-57" target="7c3789c024ecab99-54" edge="1">
          <mxGeometry relative="1" as="geometry" />
        </mxCell>
        <mxCell id="7c3789c024ecab99-57" value="" style="verticalAlign=top;verticalLabelPosition=bottom;labelPosition=center;align=center;html=1;gradientDirection=north;strokeWidth=2;shape=mxgraph.networks.storage;rounded=0;shadow=0;comic=0;" parent="1" vertex="1">
          <mxGeometry x="1510" y="1079" width="100" height="100" as="geometry" />
        </mxCell>
        <mxCell id="7c3789c024ecab99-59" style="edgeStyle=none;html=1;labelBackgroundColor=none;endArrow=none;endFill=0;strokeWidth=2;fontFamily=Verdana;fontSize=28;" parent="1" source="7c3789c024ecab99-58" target="7c3789c024ecab99-54" edge="1">
          <mxGeometry relative="1" as="geometry">
            <mxPoint x="1570" y="827" as="targetPoint" />
          </mxGeometry>
        </mxCell>
        <mxCell id="7c3789c024ecab99-58" value="" style="verticalAlign=top;verticalLabelPosition=bottom;labelPosition=center;align=center;html=1;gradientDirection=north;strokeWidth=2;shape=mxgraph.networks.server_storage;rounded=0;shadow=0;comic=0;" parent="1" vertex="1">
          <mxGeometry x="1540" y="605" width="105" height="105" as="geometry" />
        </mxCell>
        <mxCell id="7c3789c024ecab99-61" value="" style="verticalAlign=top;verticalLabelPosition=bottom;labelPosition=center;align=center;html=1;gradientDirection=north;strokeWidth=2;shape=mxgraph.networks.pc;rounded=0;shadow=0;comic=0;" parent="1" vertex="1">
          <mxGeometry x="130.00000000000026" y="1670.4117647058824" width="100" height="70" as="geometry" />
        </mxCell>
        <mxCell id="7c3789c024ecab99-62" value="" style="verticalAlign=top;verticalLabelPosition=bottom;labelPosition=center;align=center;html=1;gradientDirection=north;strokeWidth=2;shape=mxgraph.networks.pc;rounded=0;shadow=0;comic=0;" parent="1" vertex="1">
          <mxGeometry x="270.0000000000002" y="1670.4117647058824" width="100" height="70" as="geometry" />
        </mxCell>
        <mxCell id="7c3789c024ecab99-63" value="" style="verticalAlign=top;verticalLabelPosition=bottom;labelPosition=center;align=center;html=1;gradientDirection=north;strokeWidth=2;shape=mxgraph.networks.pc;rounded=0;shadow=0;comic=0;" parent="1" vertex="1">
          <mxGeometry x="390.0000000000002" y="1670.4117647058824" width="100" height="70" as="geometry" />
        </mxCell>
        <mxCell id="7c3789c024ecab99-64" value="" style="verticalAlign=top;verticalLabelPosition=bottom;labelPosition=center;align=center;html=1;gradientDirection=north;strokeWidth=2;shape=mxgraph.networks.pc;rounded=0;shadow=0;comic=0;" parent="1" vertex="1">
          <mxGeometry x="510.0000000000002" y="1670.4117647058824" width="100" height="70" as="geometry" />
        </mxCell>
        <mxCell id="7c3789c024ecab99-65" value="" style="verticalAlign=top;verticalLabelPosition=bottom;labelPosition=center;align=center;html=1;gradientDirection=north;strokeWidth=2;shape=mxgraph.networks.pc;rounded=0;shadow=0;comic=0;" parent="1" vertex="1">
          <mxGeometry x="640.0000000000002" y="1670.4117647058824" width="100" height="70" as="geometry" />
        </mxCell>
        <mxCell id="7c3789c024ecab99-66" value="" style="verticalAlign=top;verticalLabelPosition=bottom;labelPosition=center;align=center;html=1;gradientDirection=north;strokeWidth=2;shape=mxgraph.networks.printer;rounded=0;shadow=0;comic=0;" parent="1" vertex="1">
          <mxGeometry x="770.0000000000002" y="1655.4117647058824" width="100" height="100" as="geometry" />
        </mxCell>
        <mxCell id="7c3789c024ecab99-75" style="edgeStyle=orthogonalEdgeStyle;html=1;labelBackgroundColor=none;endArrow=none;endFill=0;strokeWidth=2;fontFamily=Verdana;fontSize=28;" parent="1" source="7c3789c024ecab99-67" target="7c3789c024ecab99-10" edge="1">
          <mxGeometry relative="1" as="geometry">
            <mxPoint x="1240" y="760" as="targetPoint" />
            <Array as="points">
              <mxPoint x="1370" y="1552" />
            </Array>
          </mxGeometry>
        </mxCell>
        <mxCell id="7c3789c024ecab99-67" value="" style="verticalAlign=top;verticalLabelPosition=bottom;labelPosition=center;align=center;html=1;gradientDirection=north;strokeWidth=2;shape=mxgraph.networks.wireless_hub;rounded=0;shadow=0;comic=0;" parent="1" vertex="1">
          <mxGeometry x="670.0000000000002" y="1480.4117647058824" width="100" height="85" as="geometry" />
        </mxCell>
        <mxCell id="7c3789c024ecab99-68" style="edgeStyle=none;html=1;labelBackgroundColor=none;endArrow=none;endFill=0;strokeWidth=2;fontFamily=Verdana;fontSize=15;" parent="1" source="7c3789c024ecab99-61" target="7c3789c024ecab99-67" edge="1">
          <mxGeometry relative="1" as="geometry">
            <mxPoint x="650.0000000000002" y="1600.4117647058824" as="targetPoint" />
          </mxGeometry>
        </mxCell>
        <mxCell id="7c3789c024ecab99-69" style="edgeStyle=none;html=1;labelBackgroundColor=none;endArrow=none;endFill=0;strokeWidth=2;fontFamily=Verdana;fontSize=15;" parent="1" source="7c3789c024ecab99-63" target="7c3789c024ecab99-67" edge="1">
          <mxGeometry relative="1" as="geometry" />
        </mxCell>
        <mxCell id="7c3789c024ecab99-70" style="edgeStyle=none;html=1;labelBackgroundColor=none;endArrow=none;endFill=0;strokeWidth=2;fontFamily=Verdana;fontSize=15;" parent="1" source="7c3789c024ecab99-64" target="7c3789c024ecab99-67" edge="1">
          <mxGeometry relative="1" as="geometry" />
        </mxCell>
        <mxCell id="7c3789c024ecab99-71" style="edgeStyle=none;html=1;labelBackgroundColor=none;endArrow=none;endFill=0;strokeWidth=2;fontFamily=Verdana;fontSize=15;" parent="1" source="7c3789c024ecab99-65" target="7c3789c024ecab99-67" edge="1">
          <mxGeometry relative="1" as="geometry" />
        </mxCell>
        <mxCell id="7c3789c024ecab99-72" style="edgeStyle=none;html=1;labelBackgroundColor=none;endArrow=none;endFill=0;strokeWidth=2;fontFamily=Verdana;fontSize=15;" parent="1" source="7c3789c024ecab99-66" target="7c3789c024ecab99-67" edge="1">
          <mxGeometry relative="1" as="geometry" />
        </mxCell>
        <mxCell id="HQYTzcnKR_xj2mCuHYZr-1" value="" style="rounded=0;whiteSpace=wrap;html=1;" vertex="1" parent="1">
          <mxGeometry x="160" y="1290" width="730" height="80" as="geometry" />
        </mxCell>
        <mxCell id="HQYTzcnKR_xj2mCuHYZr-2" value="" style="rounded=1;whiteSpace=wrap;html=1;" vertex="1" parent="1">
          <mxGeometry x="80" y="110" width="1370" height="2130" as="geometry" />
        </mxCell>
        <mxCell id="HQYTzcnKR_xj2mCuHYZr-65" value="" style="verticalAlign=top;verticalLabelPosition=bottom;labelPosition=center;align=center;html=1;gradientDirection=north;strokeWidth=2;shape=mxgraph.networks.wireless_hub;rounded=0;shadow=0;comic=0;" vertex="1" parent="1">
          <mxGeometry x="230" y="550" width="210" height="475.59" as="geometry" />
        </mxCell>
        <mxCell id="HQYTzcnKR_xj2mCuHYZr-66" value="" style="verticalAlign=top;verticalLabelPosition=bottom;labelPosition=center;align=center;html=1;gradientDirection=north;strokeWidth=2;shape=mxgraph.networks.wireless_hub;rounded=0;shadow=0;comic=0;" vertex="1" parent="1">
          <mxGeometry x="500" y="550" width="210" height="475.59" as="geometry" />
        </mxCell>
        <mxCell id="HQYTzcnKR_xj2mCuHYZr-67" value="" style="verticalAlign=top;verticalLabelPosition=bottom;labelPosition=center;align=center;html=1;gradientDirection=north;strokeWidth=2;shape=mxgraph.networks.wireless_hub;rounded=0;shadow=0;comic=0;" vertex="1" parent="1">
          <mxGeometry x="760" y="550" width="210" height="475.59" as="geometry" />
        </mxCell>
        <mxCell id="HQYTzcnKR_xj2mCuHYZr-69" value="VPC" style="text;html=1;resizable=0;autosize=1;align=center;verticalAlign=middle;points=[];fillColor=none;strokeColor=none;rounded=0;sketch=0;fontSize=50;" vertex="1" parent="1">
          <mxGeometry x="710" y="2090" width="120" height="70" as="geometry" />
        </mxCell>
        <mxCell id="HQYTzcnKR_xj2mCuHYZr-73" value="Text" style="text;html=1;resizable=0;autosize=1;align=center;verticalAlign=middle;points=[];fillColor=none;strokeColor=none;rounded=0;sketch=0;fontSize=50;" vertex="1" parent="1">
          <mxGeometry x="760" y="1770" width="40" height="20" as="geometry" />
        </mxCell>
        <mxCell id="HQYTzcnKR_xj2mCuHYZr-3" value="Untitled Layer" parent="0" />
        <mxCell id="HQYTzcnKR_xj2mCuHYZr-4" value="Campus wing C" style="rounded=1;whiteSpace=wrap;html=1;shadow=0;comic=0;strokeWidth=2;fillColor=none;fontFamily=Verdana;fontSize=28;align=center;arcSize=11;verticalAlign=top;" vertex="1" parent="HQYTzcnKR_xj2mCuHYZr-3">
          <mxGeometry x="-1002" y="904" width="905" height="420" as="geometry" />
        </mxCell>
        <mxCell id="HQYTzcnKR_xj2mCuHYZr-5" style="edgeStyle=none;html=1;labelBackgroundColor=none;endArrow=none;endFill=0;strokeWidth=2;fontFamily=Verdana;fontSize=28;" edge="1" parent="HQYTzcnKR_xj2mCuHYZr-3" source="HQYTzcnKR_xj2mCuHYZr-6" target="HQYTzcnKR_xj2mCuHYZr-35">
          <mxGeometry relative="1" as="geometry">
            <mxPoint x="1660" y="837.0000000000002" as="targetPoint" />
          </mxGeometry>
        </mxCell>
        <mxCell id="HQYTzcnKR_xj2mCuHYZr-6" value="" style="verticalAlign=top;verticalLabelPosition=bottom;labelPosition=center;align=center;html=1;gradientDirection=north;strokeWidth=2;shape=mxgraph.networks.firewall;rounded=0;shadow=0;comic=0;" vertex="1" parent="HQYTzcnKR_xj2mCuHYZr-3">
          <mxGeometry x="1490" y="847" width="100" height="100" as="geometry" />
        </mxCell>
        <mxCell id="HQYTzcnKR_xj2mCuHYZr-22" value="" style="verticalAlign=top;verticalLabelPosition=bottom;labelPosition=center;align=center;html=1;gradientDirection=north;strokeWidth=2;shape=mxgraph.networks.pc;rounded=0;shadow=0;comic=0;" vertex="1" parent="HQYTzcnKR_xj2mCuHYZr-3">
          <mxGeometry x="-919.9999999999998" y="1000.0017647058824" width="100" height="70" as="geometry" />
        </mxCell>
        <mxCell id="HQYTzcnKR_xj2mCuHYZr-23" value="" style="verticalAlign=top;verticalLabelPosition=bottom;labelPosition=center;align=center;html=1;gradientDirection=north;strokeWidth=2;shape=mxgraph.networks.pc;rounded=0;shadow=0;comic=0;" vertex="1" parent="HQYTzcnKR_xj2mCuHYZr-3">
          <mxGeometry x="-899.9999999999998" y="1140.0017647058824" width="100" height="70" as="geometry" />
        </mxCell>
        <mxCell id="HQYTzcnKR_xj2mCuHYZr-24" value="" style="verticalAlign=top;verticalLabelPosition=bottom;labelPosition=center;align=center;html=1;gradientDirection=north;strokeWidth=2;shape=mxgraph.networks.pc;rounded=0;shadow=0;comic=0;" vertex="1" parent="HQYTzcnKR_xj2mCuHYZr-3">
          <mxGeometry x="-769.9999999999998" y="1199.4117647058824" width="100" height="70" as="geometry" />
        </mxCell>
        <mxCell id="HQYTzcnKR_xj2mCuHYZr-25" value="" style="verticalAlign=top;verticalLabelPosition=bottom;labelPosition=center;align=center;html=1;gradientDirection=north;strokeWidth=2;shape=mxgraph.networks.pc;rounded=0;shadow=0;comic=0;" vertex="1" parent="HQYTzcnKR_xj2mCuHYZr-3">
          <mxGeometry x="-449.9999999999998" y="1250.0017647058824" width="100" height="70" as="geometry" />
        </mxCell>
        <mxCell id="HQYTzcnKR_xj2mCuHYZr-29" style="edgeStyle=none;html=1;labelBackgroundColor=none;endArrow=none;endFill=0;strokeWidth=2;fontFamily=Verdana;fontSize=15;entryX=0;entryY=0.5;entryDx=0;entryDy=0;" edge="1" parent="HQYTzcnKR_xj2mCuHYZr-3" source="HQYTzcnKR_xj2mCuHYZr-22">
          <mxGeometry relative="1" as="geometry">
            <mxPoint x="78" y="1100" as="targetPoint" />
          </mxGeometry>
        </mxCell>
        <mxCell id="HQYTzcnKR_xj2mCuHYZr-30" style="edgeStyle=none;html=1;labelBackgroundColor=none;endArrow=none;endFill=0;strokeWidth=2;fontFamily=Verdana;fontSize=15;entryX=0;entryY=0.5;entryDx=0;entryDy=0;" edge="1" parent="HQYTzcnKR_xj2mCuHYZr-3" source="HQYTzcnKR_xj2mCuHYZr-24">
          <mxGeometry relative="1" as="geometry">
            <mxPoint x="78" y="1100" as="targetPoint" />
          </mxGeometry>
        </mxCell>
        <mxCell id="HQYTzcnKR_xj2mCuHYZr-31" style="edgeStyle=none;html=1;labelBackgroundColor=none;endArrow=none;endFill=0;strokeWidth=2;fontFamily=Verdana;fontSize=15;entryX=0;entryY=0.5;entryDx=0;entryDy=0;" edge="1" parent="HQYTzcnKR_xj2mCuHYZr-3" source="HQYTzcnKR_xj2mCuHYZr-25">
          <mxGeometry relative="1" as="geometry">
            <mxPoint x="78" y="1100" as="targetPoint" />
          </mxGeometry>
        </mxCell>
        <mxCell id="HQYTzcnKR_xj2mCuHYZr-33" value="Internet" style="html=1;gradientDirection=north;strokeWidth=2;shape=mxgraph.networks.cloud;rounded=0;shadow=0;comic=0;align=center;fontSize=28;" vertex="1" parent="HQYTzcnKR_xj2mCuHYZr-3">
          <mxGeometry x="1760" y="689" width="330" height="140" as="geometry" />
        </mxCell>
        <mxCell id="HQYTzcnKR_xj2mCuHYZr-34" style="edgeStyle=none;html=1;labelBackgroundColor=none;endArrow=none;endFill=0;strokeWidth=2;fontFamily=Verdana;fontSize=28;" edge="1" parent="HQYTzcnKR_xj2mCuHYZr-3" source="HQYTzcnKR_xj2mCuHYZr-35" target="HQYTzcnKR_xj2mCuHYZr-33">
          <mxGeometry relative="1" as="geometry" />
        </mxCell>
        <mxCell id="HQYTzcnKR_xj2mCuHYZr-35" value="" style="verticalAlign=top;verticalLabelPosition=bottom;labelPosition=center;align=center;html=1;gradientDirection=north;strokeWidth=2;shape=mxgraph.networks.router;rounded=0;shadow=0;comic=0;" vertex="1" parent="HQYTzcnKR_xj2mCuHYZr-3">
          <mxGeometry x="1640" y="882" width="100" height="30" as="geometry" />
        </mxCell>
        <mxCell id="HQYTzcnKR_xj2mCuHYZr-36" style="edgeStyle=none;html=1;labelBackgroundColor=none;endArrow=none;endFill=0;strokeWidth=2;fontFamily=Verdana;fontSize=28;" edge="1" parent="HQYTzcnKR_xj2mCuHYZr-3" source="HQYTzcnKR_xj2mCuHYZr-37" target="HQYTzcnKR_xj2mCuHYZr-35">
          <mxGeometry relative="1" as="geometry" />
        </mxCell>
        <mxCell id="HQYTzcnKR_xj2mCuHYZr-37" value="" style="verticalAlign=top;verticalLabelPosition=bottom;labelPosition=center;align=center;html=1;gradientDirection=north;strokeWidth=2;shape=mxgraph.networks.storage;rounded=0;shadow=0;comic=0;" vertex="1" parent="HQYTzcnKR_xj2mCuHYZr-3">
          <mxGeometry x="1510" y="1079" width="100" height="100" as="geometry" />
        </mxCell>
        <mxCell id="HQYTzcnKR_xj2mCuHYZr-38" style="edgeStyle=none;html=1;labelBackgroundColor=none;endArrow=none;endFill=0;strokeWidth=2;fontFamily=Verdana;fontSize=28;" edge="1" parent="HQYTzcnKR_xj2mCuHYZr-3" source="HQYTzcnKR_xj2mCuHYZr-39" target="HQYTzcnKR_xj2mCuHYZr-35">
          <mxGeometry relative="1" as="geometry">
            <mxPoint x="1570" y="827" as="targetPoint" />
          </mxGeometry>
        </mxCell>
        <mxCell id="HQYTzcnKR_xj2mCuHYZr-39" value="" style="verticalAlign=top;verticalLabelPosition=bottom;labelPosition=center;align=center;html=1;gradientDirection=north;strokeWidth=2;shape=mxgraph.networks.server_storage;rounded=0;shadow=0;comic=0;" vertex="1" parent="HQYTzcnKR_xj2mCuHYZr-3">
          <mxGeometry x="1540" y="605" width="105" height="105" as="geometry" />
        </mxCell>
        <mxCell id="HQYTzcnKR_xj2mCuHYZr-47" value="" style="verticalAlign=top;verticalLabelPosition=bottom;labelPosition=center;align=center;html=1;gradientDirection=north;strokeWidth=2;shape=mxgraph.networks.wireless_hub;rounded=0;shadow=0;comic=0;" vertex="1" parent="HQYTzcnKR_xj2mCuHYZr-3">
          <mxGeometry x="1030" y="560" width="210" height="475.59" as="geometry" />
        </mxCell>
        <mxCell id="HQYTzcnKR_xj2mCuHYZr-53" value="" style="rounded=0;whiteSpace=wrap;html=1;" vertex="1" parent="HQYTzcnKR_xj2mCuHYZr-3">
          <mxGeometry x="210" y="1610" width="1165" height="310" as="geometry" />
        </mxCell>
        <mxCell id="HQYTzcnKR_xj2mCuHYZr-63" value="" style="rounded=0;whiteSpace=wrap;html=1;sketch=0;" vertex="1" parent="HQYTzcnKR_xj2mCuHYZr-3">
          <mxGeometry x="210" y="1240" width="1160" height="300" as="geometry" />
        </mxCell>
        <mxCell id="HQYTzcnKR_xj2mCuHYZr-64" value="Untitled Layer" parent="0" />
      </root>
    </mxGraphModel>
  </diagram>
</mxfile>
